<svg width="14" height="12" viewBox="0 0 14 12" fill="none" xmlns="http://www.w3.org/2000/svg">
<path d="M8.62518 4.90671H1.12518C1.05643 4.90671 1.00018 4.85046 1.00018 4.78171V3.90671C1.00018 3.83796 1.05643 3.78171 1.12518 3.78171H8.62518C8.69393 3.78171 8.75018 3.83796 8.75018 3.90671V4.78171C8.75018 4.85046 8.69393 4.90671 8.62518 4.90671ZM8.75018 8.09421C8.75018 8.16296 8.69393 8.21921 8.62518 8.21921H1.12518C1.05643 8.21921 1.00018 8.16296 1.00018 8.09421V7.21921C1.00018 7.15046 1.05643 7.09421 1.12518 7.09421H8.62518C8.69393 7.09421 8.75018 7.15046 8.75018 7.21921V8.09421ZM0.875181 0.500458H13.1252C13.1939 0.500458 13.2502 0.556708 13.2502 0.625458V1.50046C13.2502 1.56921 13.1939 1.62546 13.1252 1.62546H0.875181C0.806432 1.62546 0.750181 1.56921 0.750181 1.50046V0.625458C0.750181 0.556708 0.806432 0.500458 0.875181 0.500458ZM0.875181 10.3755H13.1252C13.1939 10.3755 13.2502 10.4317 13.2502 10.5005V11.3755C13.2502 11.4442 13.1939 11.5005 13.1252 11.5005H0.875181C0.806432 11.5005 0.750181 11.4442 0.750181 11.3755V10.5005C0.750181 10.4317 0.806432 10.3755 0.875181 10.3755ZM13.1971 6.10827L10.7549 8.03171C10.6642 8.10358 10.5299 8.03952 10.5299 7.9239V4.07702C10.5299 3.9614 10.6627 3.89733 10.7549 3.96921L13.1971 5.89265C13.2135 5.90541 13.2268 5.92176 13.2359 5.94045C13.245 5.95913 13.2498 5.97966 13.2498 6.00046C13.2498 6.02126 13.245 6.04178 13.2359 6.06047C13.2268 6.07915 13.2135 6.0955 13.1971 6.10827Z" fill="white"/>
</svg>
